<?xml version="1.0" encoding="UTF-8" standalone="no"?>
<svg
   xmlns:dc="http://purl.org/dc/elements/1.1/"
   xmlns:cc="http://creativecommons.org/ns#"
   xmlns:rdf="http://www.w3.org/1999/02/22-rdf-syntax-ns#"
   xmlns:svg="http://www.w3.org/2000/svg"
   xmlns="http://www.w3.org/2000/svg"
   width="8.6934519mm"
   height="9.2013578mm"
   viewBox="0 0 8.6934519 9.2013578"
   version="1.1"
   id="svg5663">
  <defs
     id="defs5657" />
  <metadata
     id="metadata5660">
    <rdf:RDF>
      <cc:Work
         rdf:about="">
        <dc:format>image/svg+xml</dc:format>
        <dc:type
           rdf:resource="http://purl.org/dc/dcmitype/StillImage" />
        <dc:title></dc:title>
      </cc:Work>
    </rdf:RDF>
  </metadata>
  <g
     id="layer1"
     transform="translate(69.358634,-71.661224)">
    <path
       id="path3688"
       style="stroke-width:0.26458332px"
       d="m -60.665182,75.883927 c 0,-0.4016 -0.265765,-0.755952 -0.690988,-0.755952 h -4.157738 l 1.730422,-1.730423 c 0.141741,-0.141741 0.224424,-0.336635 0.224424,-0.537435 0,-0.200799 -0.08268,-0.395693 -0.224424,-0.537434 l -0.44294,-0.437035 c -0.141741,-0.141741 -0.33073,-0.224424 -0.531529,-0.224424 -0.2008,0 -0.395694,0.08268 -0.537435,0.224424 l -3.844727,3.83882 c -0.135835,0.141741 -0.218517,0.336635 -0.218517,0.537435 0,0.2008 0.08268,0.395694 0.218517,0.531529 l 3.844727,3.850632 c 0.141741,0.135836 0.336635,0.218518 0.537435,0.218518 0.200799,0 0.395693,-0.08268 0.531529,-0.218518 l 0.44294,-0.448846 c 0.141741,-0.135836 0.224424,-0.330729 0.224424,-0.531529 0,-0.2008 -0.08268,-0.395694 -0.224424,-0.531529 l -1.730422,-1.736328 h 4.157738 c 0.425223,0 0.690988,-0.354353 0.690988,-0.755953 z" />
  </g>
</svg>
