<?xml version="1.0" encoding="UTF-8" standalone="no"?>
<svg
   xmlns:dc="http://purl.org/dc/elements/1.1/"
   xmlns:cc="http://creativecommons.org/ns#"
   xmlns:rdf="http://www.w3.org/1999/02/22-rdf-syntax-ns#"
   xmlns:svg="http://www.w3.org/2000/svg"
   xmlns="http://www.w3.org/2000/svg"
   width="9.0714283mm"
   height="9.0714283mm"
   viewBox="0 0 9.0714283 9.0714283"
   version="1.1"
   id="svg5094">
  <defs
     id="defs5088" />
  <metadata
     id="metadata5091">
    <rdf:RDF>
      <cc:Work
         rdf:about="">
        <dc:format>image/svg+xml</dc:format>
        <dc:type
           rdf:resource="http://purl.org/dc/dcmitype/StillImage" />
        <dc:title></dc:title>
      </cc:Work>
    </rdf:RDF>
  </metadata>
  <g
     id="layer1"
     transform="translate(73.327377,-61.898811)">
    <path
       id="path3726"
       style="stroke-width:0.26458332px"
       d="m -68.035711,64.355656 c 0,-0.106306 -0.08268,-0.188988 -0.188988,-0.188988 h -0.377976 c -0.106306,0 -0.188988,0.08268 -0.188988,0.188988 v 2.078869 h -1.322917 c -0.106306,0 -0.188988,0.08268 -0.188988,0.188988 v 0.377976 c 0,0.106306 0.08268,0.188988 0.188988,0.188988 h 1.889881 c 0.106306,0 0.188988,-0.08268 0.188988,-0.188988 z m 2.456845,2.078869 c 0,1.771763 -1.441034,3.212798 -3.212797,3.212798 -1.771764,0 -3.212798,-1.441035 -3.212798,-3.212798 0,-1.771763 1.441034,-3.212798 3.212798,-3.212798 1.771763,0 3.212797,1.441035 3.212797,3.212798 z m 1.322917,0 c 0,-2.504092 -2.031622,-4.535714 -4.535714,-4.535714 -2.504092,0 -4.535714,2.031622 -4.535714,4.535714 0,2.504092 2.031622,4.535714 4.535714,4.535714 2.504092,0 4.535714,-2.031622 4.535714,-4.535714 z" />
  </g>
</svg>
