<?xml version="1.0" encoding="UTF-8" standalone="no"?>
<svg
   xmlns:dc="http://purl.org/dc/elements/1.1/"
   xmlns:cc="http://creativecommons.org/ns#"
   xmlns:rdf="http://www.w3.org/1999/02/22-rdf-syntax-ns#"
   xmlns:svg="http://www.w3.org/2000/svg"
   xmlns="http://www.w3.org/2000/svg"
   width="9.8273811mm"
   height="9.8273802mm"
   viewBox="0 0 9.8273811 9.8273802"
   version="1.1"
   id="svg4525">
  <defs
     id="defs4519" />
  <metadata
     id="metadata4522">
    <rdf:RDF>
      <cc:Work
         rdf:about="">
        <dc:format>image/svg+xml</dc:format>
        <dc:type
           rdf:resource="http://purl.org/dc/dcmitype/StillImage" />
        <dc:title></dc:title>
      </cc:Work>
    </rdf:RDF>
  </metadata>
  <g
     id="layer1"
     transform="translate(63.122025,-35.818454)">
    <path
       id="path3747"
       style="line-height:6.61458302px;stroke-width:0.26458332px"
       d="m -56.318453,39.976192 c 0,1.458752 -1.187082,2.645833 -2.645834,2.645833 -1.458751,0 -2.645833,-1.187081 -2.645833,-2.645833 0,-1.458752 1.187082,-2.645833 2.645833,-2.645833 1.458752,0 2.645834,1.187081 2.645834,2.645833 z m 3.023809,4.913691 c 0,-0.2008 -0.08268,-0.395694 -0.218517,-0.531529 l -2.025716,-2.025717 c 0.478376,-0.690987 0.732328,-1.51781 0.732328,-2.356445 0,-2.297386 -1.860351,-4.157738 -4.157738,-4.157738 -2.297386,0 -4.157738,1.860352 -4.157738,4.157738 0,2.297387 1.860352,4.157738 4.157738,4.157738 0.838635,0 1.665458,-0.253953 2.356446,-0.732329 l 2.025716,2.019811 c 0.135835,0.141741 0.330729,0.224423 0.531529,0.224423 0.413411,0 0.755952,-0.342541 0.755952,-0.755952 z" />
  </g>
</svg>
